<svg xmlns="http://www.w3.org/2000/svg" width="512" height="512" style="enable-background:new 0 0 512 512" xml:space="preserve"><path xmlns="http://www.w3.org/2000/svg" d="M401.742 152.637c20.48 1.015 42.137-7.645 58.145-23.657 22.746-22.742 17.093-63.289 13.02-81.59l26.23-26.23L477.973 0l-26.227 26.227c-18.305-4.075-58.851-9.727-81.594 13.02-14.613 14.608-23.191 33.976-23.722 52.956l-22.77 24.352c-17.77 19-27.316 43.793-26.883 69.804.438 26.012 10.809 50.473 29.203 68.868l51.665 51.664c5.792 5.793 5.792 15.214 0 21.011l-1.188 1.188c-5.793 5.793-15.219 5.793-21.012 0L178.742 152.383c-17.68-17.68-41.176-27.64-66.16-28.051-25.223-.414-48.914 8.938-66.832 26.336-18.14 17.61-28.273 41.285-28.527 66.664-.258 25.387 9.386 49.266 27.129 67.203l121.082 123.04c2.832 2.862 4.347 6.679 4.265 10.753-.082 4.063-1.754 7.817-4.707 10.57-5.777 5.391-15.238 5.02-21.086-.828l-42.226-42.23c-25.118-25.113-65.985-25.113-91.102 0L0 396.422l87.512 87.512c17.68 17.68 41.175 27.644 66.16 28.054.535.008 1.062.012 1.598.012 24.582 0 47.695-9.324 65.234-26.352 18.137-17.609 28.27-41.28 28.527-66.66.258-25.39-9.386-49.265-27.133-67.207L100.816 228.742c-2.832-2.863-4.343-6.68-4.261-10.754.082-4.062 1.754-7.816 4.703-10.57 5.777-5.39 15.238-5.02 21.086.828L299.316 385.22c17.797 17.797 41.461 27.601 66.633 27.601s48.84-9.804 66.637-27.601l1.191-1.192c36.743-36.742 36.743-96.527 0-133.27l-50.793-50.792a20.072 20.072 0 0 1-5.918-14.285 20.065 20.065 0 0 1 5.918-14.285zm0 0" fill="#fff" data-original="#000000"/></svg>